<svg xmlns="http://www.w3.org/2000/svg" viewBox="0 0 342.48 93.73"><defs><style>.cls-1{fill:#4daf4e;}.cls-2{fill:#38a4dd;}</style></defs><title>Asset 1</title><g id="Layer_2" data-name="Layer 2"><g id="Artwork"><g id="incl-hor-fullcolour"><path class="cls-1" d="M93.81,62.24V85.37a8.48,8.48,0,0,1-8.59,8.36H0v-4a154.56,154.56,0,0,1,40.51-21c11.51-4,31.87-7.71,53.3-6.47"/><path class="cls-2" d="M8.59,0H93.81V50.89a248.32,248.32,0,0,0-26-.46Q70.44,41,73.12,31.55c-6.57-5.14-12.22-9.92-18.78-15.07-5.58,5.15-12.06,9.93-17.64,15.07q2.23,10.5,4.46,21C31.63,53.75,21.88,55.42,12,57.6Q5.93,59,0,60.5V8.37A8.49,8.49,0,0,1,8.59,0"/><rect class="cls-2" x="54.93" y="34.23" width="4.9" height="4.91"/><rect class="cls-2" x="54.93" y="28.04" width="4.9" height="4.9"/><rect class="cls-2" x="48.74" y="34.23" width="4.9" height="4.91"/><rect class="cls-2" x="48.74" y="28.04" width="4.9" height="4.9"/><path class="cls-1" d="M127.34,30.82a3.92,3.92,0,0,1-7.84,0,3.92,3.92,0,1,1,7.84,0Zm-1,43.12h-5.69l-.06-29.58,5.69,0Z"/><path class="cls-1" d="M141.1,48.3h.12a10.1,10.1,0,0,1,8.9-4.88c8.35,0,10.51,5.6,10.53,12.81l0,17.64H155l0-16.94c0-5.06-.72-8.47-6.53-8.46-7.33,0-7.32,6.46-7.31,11.84l0,13.59h-5.69l-.06-29.59h5.69Z"/><path class="cls-2" d="M190.22,52.62a10.87,10.87,0,0,0-8.48-4c-5.56,0-9.85,5-9.84,10.39,0,6.07,4.26,10.48,10.27,10.47a10.65,10.65,0,0,0,8.08-3.94v7.27a16.5,16.5,0,0,1-8.15,2,15.57,15.57,0,0,1-15.9-15.52c0-9.16,7-15.94,16.15-16a16,16,0,0,1,7.85,1.94Z"/><path class="cls-2" d="M202.34,73.78h-5.69l-.12-54.87,5.69,0Z"/><path class="cls-1" d="M215.8,44.16l0,16.38c0,4.74,1.22,8.91,6.84,8.89s6.82-4.18,6.81-8.92l0-16.38h5.68l0,17c0,8.09-3.76,13.59-12.49,13.61s-12.52-5.47-12.54-13.56l0-17Z"/><path class="cls-1" d="M254.63,50.84a4.39,4.39,0,0,0-3.8-2.58,3.06,3.06,0,0,0-3.09,2.91c0,2.6,3.42,3.73,6.9,5.3s6.83,3.71,6.84,8.39a9.92,9.92,0,0,1-10.15,9.82c-4.3,0-8.67-2.44-10.26-6.61l4.87-2.23c1.2,2.21,2.66,3.79,5.38,3.78a4.24,4.24,0,0,0,4.48-4.18c0-1.58-.77-2.33-2.1-3.22l-5.57-3c-3.29-1.76-5.69-3.4-5.7-7.44a8.63,8.63,0,0,1,8.7-8.62,8.81,8.81,0,0,1,8.11,5.17Z"/><path class="cls-1" d="M275,30.51a3.92,3.92,0,0,1-7.84,0,3.92,3.92,0,1,1,7.84,0Zm-1,43.11h-5.69l-.07-29.58H274Z"/><path class="cls-1" d="M312,58.81A15.81,15.81,0,1,1,296.2,43.1,15.55,15.55,0,0,1,312,58.81Zm-25.92.06a10.12,10.12,0,1,0,10.09-10.33A10.27,10.27,0,0,0,286.12,58.87Z"/><path class="cls-1" d="M322.89,47.91H323A10.12,10.12,0,0,1,331.92,43c8.34,0,10.5,5.6,10.52,12.81l0,17.63-5.69,0,0-16.94c0-5.06-.71-8.47-6.53-8.46-7.33,0-7.32,6.46-7.31,11.84l0,13.59h-5.69l-.06-29.59h5.69Z"/></g></g></g></svg>